<svg width="172" height="154" viewBox="0 0 172 154" fill="none" xmlns="http://www.w3.org/2000/svg">
<g clip-path="url(#clip0_571_2)">
<path d="M22.4878 9.98466L46.8602 0.951279C47.6881 0.644423 48.6086 1.06821 48.915 1.8973L94.0575 124.043C95.8634 128.929 93.367 134.367 88.4878 136.175L69.2695 143.298C68.1803 143.702 66.9703 143.142 66.5685 142.055L19.8675 15.6924C19.0173 13.392 20.1907 10.8361 22.4878 9.98466Z" fill="url(#paint0_linear_571_2)"/>
<path d="M43.7859 0.208719L47.4261 0.665365C48.4134 0.789209 49.1172 1.69179 48.9931 2.68404L31.3753 143.529C30.5564 150.076 24.5818 154.727 18.0445 153.907L14.2571 153.432C5.34685 152.314 -0.977175 144.163 0.138524 135.243L14.143 23.2849C15.9607 8.72432 29.243 -1.61561 43.7859 0.208719Z" fill="url(#paint1_linear_571_2)"/>
<path d="M85.4135 46.6677L105.739 34.9159C107.472 33.9141 109.691 34.5095 110.691 36.2447L158.091 118.461C160.821 123.196 159.198 129.259 154.47 131.992L136.523 142.369C135.849 142.759 134.989 142.528 134.6 141.853L83.6099 53.4087C82.2513 51.0523 83.0591 48.0331 85.4122 46.6726L85.4135 46.6677Z" fill="url(#paint2_linear_571_2)"/>
<path d="M138.68 144.024L137.39 143.907C135.686 143.751 134.432 142.239 134.587 140.536L139.756 83.7681C140.636 74.1017 149.187 66.9694 158.84 67.8508C166.788 68.5766 172.653 75.6282 171.928 83.5879L168.706 118.977C167.321 134.186 153.867 145.407 138.68 144.021L138.68 144.024Z" fill="url(#paint3_linear_571_2)"/>
<path d="M107.408 34.325L107.83 34.3634C108.799 34.4519 109.516 35.3142 109.428 36.2848L102.177 115.918C100.638 132.819 85.686 145.29 68.8092 143.749L68.3877 143.71C67.4185 143.622 66.7013 142.76 66.7897 141.789L74.0406 62.1556C75.5794 45.2547 90.5313 32.7839 107.408 34.325Z" fill="url(#paint4_linear_571_2)"/>
</g>
<defs>
<linearGradient id="paint0_linear_571_2" x1="81.168" y1="137.684" x2="33.4717" y2="5.75812" gradientUnits="userSpaceOnUse">
<stop offset="1" stop-color="#F0F0F0"/>
</linearGradient>
<linearGradient id="paint1_linear_571_2" x1="8.92154" y1="152.162" x2="36.9323" y2="17.0664" gradientUnits="userSpaceOnUse">
<stop offset="1" stop-color="white"/>
</linearGradient>
<linearGradient id="paint2_linear_571_2" x1="169.993" y1="129.466" x2="112.729" y2="31.8924" gradientUnits="userSpaceOnUse">
<stop offset="1" stop-color="#F0F0F0"/>
</linearGradient>
<linearGradient id="paint3_linear_571_2" x1="174.815" y1="68.1886" x2="165.507" y2="138.056" gradientUnits="userSpaceOnUse">
<stop offset="1" stop-color="white"/>
</linearGradient>
<linearGradient id="paint4_linear_571_2" x1="68.795" y1="144.447" x2="83.7801" y2="44.353" gradientUnits="userSpaceOnUse">
<stop offset="1" stop-color="white"/>
</linearGradient>
<clipPath id="clip0_571_2">
<rect width="172" height="154" fill="white"/>
</clipPath>
</defs>
</svg>
